<svg width="185" height="185" viewBox="0 0 185 185" fill="none" xmlns="http://www.w3.org/2000/svg">
<circle cx="92.5" cy="92.5" r="92" stroke="#FFF5F3"/>
<rect x="23.5" y="22.5" width="138" height="138" rx="69" fill="white"/>
<rect x="23.5" y="22.5" width="138" height="138" rx="69" stroke="#FFE5DF"/>
<circle cx="92" cy="91.5" r="49.5" fill="#FFF4F4" stroke="#FFE5DF"/>
<path d="M92.4997 76.2502V66.0835H82.333M67.083 91.5002H72.1663M84.8747 88.9585V94.0418M100.125 88.9585V94.0418M112.833 91.5002H117.916M82.333 106.75L72.1663 116.917V81.3335C72.1663 79.9853 72.7019 78.6923 73.6552 77.739C74.6085 76.7857 75.9015 76.2502 77.2497 76.2502H107.75C109.098 76.2502 110.391 76.7857 111.344 77.739C112.297 78.6923 112.833 79.9853 112.833 81.3335V101.667C112.833 103.015 112.297 104.308 111.344 105.261C110.391 106.215 109.098 106.75 107.75 106.75H82.333Z" stroke="#FF6D4D" stroke-width="4" stroke-linecap="round" stroke-linejoin="round"/>
<path d="M126.5 117.042L123.375 125.375L115.042 128.5L123.375 131.625L126.5 139.958L129.625 131.625L137.959 128.5L129.625 125.375L126.5 117.042Z" fill="#FF6D4D"/>
<g clip-path="url(#clip0_2295_3081)">
<path d="M44.5003 35.5415L42.8753 39.8748L38.542 41.4998L42.8753 43.1248L44.5003 47.4582L46.1253 43.1248L50.4587 41.4998L46.1253 39.8748L44.5003 35.5415Z" fill="#FF6D4D"/>
</g>
<g clip-path="url(#clip1_2295_3081)">
<path d="M162 74.75L159.75 80.75L153.75 83L159.75 85.25L162 91.25L164.25 85.25L170.25 83L164.25 80.75L162 74.75Z" fill="#FFC4B7"/>
</g>
<defs>
<clipPath id="clip0_2295_3081">
<rect width="13" height="13" fill="white" transform="translate(38 35)"/>
</clipPath>
<clipPath id="clip1_2295_3081">
<rect width="18" height="18" fill="white" transform="translate(153 74)"/>
</clipPath>
</defs>
</svg>
