<svg width="48" height="48" viewBox="0 0 48 48" fill="none" xmlns="http://www.w3.org/2000/svg">
<rect width="48" height="48" rx="8" fill="white"/>
<path d="M23.5 27.1252L20.875 24.5002M23.5 27.1252C24.7222 26.6604 25.8948 26.0741 27 25.3752M23.5 27.1252V31.5002C23.5 31.5002 26.1512 31.019 27 29.7502C27.945 28.3327 27 25.3752 27 25.3752M20.875 24.5002C21.3406 23.2922 21.9269 22.1343 22.625 21.044C23.6445 19.4138 25.0642 18.0716 26.7489 17.145C28.4336 16.2185 30.3273 15.7383 32.25 15.7502C32.25 18.1302 31.5675 22.3127 27 25.3752M20.875 24.5002H16.5C16.5 24.5002 16.9812 21.849 18.25 21.0002C19.6675 20.0552 22.625 21.0002 22.625 21.0002M16.9375 28.4377C15.625 29.5402 15.1875 32.8127 15.1875 32.8127C15.1875 32.8127 18.46 32.3752 19.5625 31.0627C20.1837 30.3277 20.175 29.199 19.4837 28.5165C19.1436 28.1918 18.6956 28.0043 18.2257 27.9897C17.7558 27.9752 17.297 28.1347 16.9375 28.4377Z" stroke="#808080" stroke-width="2" stroke-linecap="round" stroke-linejoin="round"/>
</svg>
