<svg width="24" height="24" viewBox="0 0 24 24" fill="none" xmlns="http://www.w3.org/2000/svg">
<path d="M5.6145 2.73225C5.45147 2.83768 5.33567 3.00221 5.29146 3.19126C5.24725 3.38031 5.27808 3.57914 5.37745 3.74593C5.47682 3.91272 5.63701 4.03447 5.82431 4.08559C6.0116 4.1367 6.21143 4.11319 6.38175 4.02L6.3885 4.01625L6.4335 3.9915C6.4785 3.9675 6.5535 3.932 6.6585 3.885C6.8685 3.79275 7.20075 3.66375 7.659 3.5325C8.57625 3.27225 10.0065 3 12 3C13.9935 3 15.4237 3.2715 16.341 3.534C16.8 3.6645 17.1315 3.7935 17.3415 3.8865C17.4332 3.92638 17.5233 3.96992 17.6115 4.017L17.619 4.02075C17.7896 4.11731 17.9913 4.14323 18.1808 4.09295C18.3702 4.04267 18.5325 3.9202 18.6328 3.75175C18.7331 3.58331 18.7635 3.38228 18.7174 3.19173C18.6713 3.00118 18.5524 2.83624 18.3862 2.73225L18.3848 2.73075H18.3832L18.3795 2.7285L18.3705 2.7225L18.2565 2.661C18.1542 2.60809 18.0501 2.55856 17.9445 2.5125C17.5568 2.34637 17.1587 2.20557 16.7528 2.091C15.7013 1.791 14.1315 1.5 12 1.5C9.8685 1.5 8.29875 1.791 7.24725 2.091C6.72225 2.241 6.32625 2.394 6.05625 2.5125C5.9109 2.57602 5.7685 2.64609 5.6295 2.7225L5.6205 2.7285L5.61675 2.73L5.61525 2.73075L5.6145 2.73225ZM5.625 5.625C4.92881 5.625 4.26113 5.90156 3.76884 6.39384C3.27656 6.88613 3 7.55381 3 8.25V15.75C3 16.4462 3.27656 17.1139 3.76884 17.6062C4.26113 18.0984 4.92881 18.375 5.625 18.375H13.125C13.8212 18.375 14.4889 18.0984 14.9812 17.6062C15.4734 17.1139 15.75 16.4462 15.75 15.75V14.229L19.3027 16.3305C19.4735 16.4314 19.6679 16.4853 19.8663 16.4869C20.0646 16.4884 20.2598 16.4375 20.4321 16.3393C20.6044 16.241 20.7477 16.099 20.8475 15.9276C20.9472 15.7561 20.9998 15.5613 21 15.363V8.6355C21.0001 8.44426 20.9514 8.25616 20.8585 8.08897C20.7657 7.92178 20.6318 7.78102 20.4694 7.67998C20.307 7.57894 20.1216 7.52096 19.9306 7.51151C19.7396 7.50207 19.5493 7.54147 19.3778 7.626L15.75 9.41475V8.25C15.75 7.55381 15.4734 6.88613 14.9812 6.39384C14.4889 5.90156 13.8212 5.625 13.125 5.625H5.625ZM15.75 11.0865L19.5 9.2385V14.7052L15.75 12.486V11.0865ZM4.5 8.25C4.5 7.95163 4.61853 7.66548 4.8295 7.4545C5.04048 7.24353 5.32663 7.125 5.625 7.125H13.125C13.4234 7.125 13.7095 7.24353 13.9205 7.4545C14.1315 7.66548 14.25 7.95163 14.25 8.25V15.75C14.25 16.0484 14.1315 16.3345 13.9205 16.5455C13.7095 16.7565 13.4234 16.875 13.125 16.875H5.625C5.32663 16.875 5.04048 16.7565 4.8295 16.5455C4.61853 16.3345 4.5 16.0484 4.5 15.75V8.25ZM5.35725 20.2388C5.30646 20.3232 5.27282 20.4169 5.25826 20.5144C5.2437 20.6119 5.2485 20.7113 5.2724 20.807C5.29629 20.9026 5.3388 20.9926 5.3975 21.0718C5.4562 21.151 5.52994 21.2178 5.6145 21.2685L5.61675 21.27L5.6205 21.2723L5.6295 21.2767C5.66658 21.2991 5.70462 21.3199 5.7435 21.339C5.8165 21.378 5.92075 21.4275 6.05625 21.4875C6.32625 21.606 6.7215 21.7582 7.24725 21.909C8.29875 22.209 9.8685 22.5 12 22.5C14.1315 22.5 15.7013 22.209 16.7528 21.909C17.2785 21.759 17.6738 21.606 17.9445 21.4875C18.0804 21.4282 18.2138 21.3631 18.3442 21.2925L18.3705 21.2775L18.3795 21.2715L18.3832 21.27L18.3848 21.2685H18.3862C18.5572 21.1667 18.6807 21.0011 18.7296 20.8082C18.7785 20.6153 18.7487 20.4108 18.6469 20.2399C18.545 20.0689 18.3794 19.9454 18.1865 19.8965C17.9936 19.8477 17.7892 19.8774 17.6182 19.9792L17.6122 19.983L17.5665 20.0077C17.5215 20.0317 17.4465 20.0672 17.3415 20.1143C17.1315 20.2065 16.8 20.3355 16.341 20.4667C15.4237 20.7285 13.9935 21 12 21C10.0065 21 8.57625 20.7285 7.659 20.466C7.31854 20.3701 6.9846 20.2523 6.65925 20.1135C6.56729 20.0736 6.47697 20.0301 6.3885 19.983L6.38175 19.9792C6.21131 19.8785 6.00795 19.8493 5.81603 19.8979C5.62411 19.9465 5.45919 20.069 5.35725 20.2388Z" fill="black"/>
</svg>
