<svg width="48" height="48" viewBox="0 0 48 48" fill="none" xmlns="http://www.w3.org/2000/svg">
<rect width="48" height="48" rx="8" fill="white"/>
<path d="M21.0002 24.0001L23.0002 26.0001L27.0002 22.0001M15.8502 20.6201C15.7042 19.9626 15.7266 19.2789 15.9153 18.6324C16.1041 17.9859 16.4529 17.3975 16.9297 16.9218C17.4064 16.4461 17.9955 16.0984 18.6424 15.9111C19.2893 15.7237 19.973 15.7028 20.6302 15.8501C20.9919 15.2844 21.4902 14.8189 22.0791 14.4964C22.6681 14.1739 23.3287 14.0049 24.0002 14.0049C24.6716 14.0049 25.3323 14.1739 25.9212 14.4964C26.5102 14.8189 27.0085 15.2844 27.3702 15.8501C28.0284 15.7021 28.7133 15.723 29.3612 15.9108C30.0091 16.0986 30.599 16.4472 31.076 16.9243C31.5531 17.4013 31.9017 17.9912 32.0895 18.6391C32.2773 19.287 32.2982 19.9719 32.1502 20.6301C32.7159 20.9918 33.1814 21.4901 33.5039 22.079C33.8264 22.668 33.9954 23.3286 33.9954 24.0001C33.9954 24.6715 33.8264 25.3322 33.5039 25.9211C33.1814 26.5101 32.7159 27.0084 32.1502 27.3701C32.2975 28.0273 32.2765 28.711 32.0892 29.3579C31.9018 30.0048 31.5542 30.5939 31.0785 31.0706C30.6027 31.5473 30.0144 31.8962 29.3679 32.0849C28.7213 32.2736 28.0377 32.2961 27.3802 32.1501C27.019 32.718 26.5203 33.1855 25.9303 33.5094C25.3404 33.8333 24.6782 34.0032 24.0052 34.0032C23.3322 34.0032 22.67 33.8333 22.0801 33.5094C21.4901 33.1855 20.9914 32.718 20.6302 32.1501C19.973 32.2974 19.2893 32.2765 18.6424 32.0891C17.9955 31.9018 17.4064 31.5541 16.9297 31.0784C16.4529 30.6027 16.1041 30.0143 15.9153 29.3678C15.7266 28.7213 15.7042 28.0376 15.8502 27.3801C15.2801 27.0193 14.8106 26.5203 14.4852 25.9293C14.1599 25.3384 13.9893 24.6747 13.9893 24.0001C13.9893 23.3255 14.1599 22.6618 14.4852 22.0709C14.8106 21.4799 15.2801 20.9809 15.8502 20.6201Z" stroke="#808080" stroke-width="2" stroke-linecap="round" stroke-linejoin="round"/>
</svg>
