<svg width="140" height="139" viewBox="0 0 140 139" fill="none" xmlns="http://www.w3.org/2000/svg">
<rect x="1" y="0.5" width="138" height="138" rx="69" fill="white"/>
<rect x="1" y="0.5" width="138" height="138" rx="69" stroke="#FFE5DF"/>
<circle cx="69.5" cy="69.5" r="49.5" fill="#FFF4F4" stroke="#FFE5DF"/>
<path d="M70.0002 54.25V44.0833H59.8335M44.5835 69.5H49.6668M62.3752 66.9583V72.0417M77.6252 66.9583V72.0417M90.3335 69.5H95.4168M59.8335 84.75L49.6668 94.9167V59.3333C49.6668 57.9852 50.2024 56.6922 51.1557 55.7389C52.109 54.7856 53.402 54.25 54.7502 54.25H85.2502C86.5983 54.25 87.8913 54.7856 88.8446 55.7389C89.7979 56.6922 90.3335 57.9852 90.3335 59.3333V79.6667C90.3335 81.0149 89.7979 82.3078 88.8446 83.2611C87.8913 84.2144 86.5983 84.75 85.2502 84.75H59.8335Z" stroke="#FF6D4D" stroke-width="4" stroke-linecap="round" stroke-linejoin="round"/>
<path d="M104 95.0417L100.875 103.375L92.5415 106.5L100.875 109.625L104 117.958L107.125 109.625L115.458 106.5L107.125 103.375L104 95.0417Z" fill="#FF6D4D"/>
<path d="M21.9998 13.5417L20.3748 17.875L16.0415 19.5L20.3748 21.125L21.9998 25.4583L23.6248 21.125L27.9582 19.5L23.6248 17.875L21.9998 13.5417Z" fill="#FF6D4D"/>
</svg>
