<svg width="17" height="11" viewBox="0 0 17 11" fill="none" xmlns="http://www.w3.org/2000/svg">
<path d="M0.5 0V11H16.5V0H0.5ZM4.5 9.42857C4.5 8.80342 4.24714 8.20387 3.79706 7.76182C3.34697 7.31977 2.73652 7.07143 2.1 7.07143V3.92857C2.73652 3.92857 3.34697 3.68023 3.79706 3.23818C4.24714 2.79613 4.5 2.19658 4.5 1.57143H12.5C12.5 2.19658 12.7529 2.79613 13.2029 3.23818C13.653 3.68023 14.2635 3.92857 14.9 3.92857V7.07143C14.2635 7.07143 13.653 7.31977 13.2029 7.76182C12.7529 8.20387 12.5 8.80342 12.5 9.42857H4.5ZM8.5 3.14286C9.38 3.14286 10.1 4.16429 10.1 5.5C10.1 6.83571 9.38 7.85714 8.5 7.85714C7.62 7.85714 6.9 6.83571 6.9 5.5C6.9 4.16429 7.62 3.14286 8.5 3.14286Z" fill="#808080"/>
</svg>
