<svg width="16" height="11" viewBox="0 0 16 11" fill="none" xmlns="http://www.w3.org/2000/svg">
<path d="M0 0V11H16V0H0ZM4 9.42857C4 8.80342 3.74714 8.20387 3.29706 7.76182C2.84697 7.31977 2.23652 7.07143 1.6 7.07143V3.92857C2.23652 3.92857 2.84697 3.68023 3.29706 3.23818C3.74714 2.79613 4 2.19658 4 1.57143H12C12 2.19658 12.2529 2.79613 12.7029 3.23818C13.153 3.68023 13.7635 3.92857 14.4 3.92857V7.07143C13.7635 7.07143 13.153 7.31977 12.7029 7.76182C12.2529 8.20387 12 8.80342 12 9.42857H4ZM8 3.14286C8.88 3.14286 9.6 4.16429 9.6 5.5C9.6 6.83571 8.88 7.85714 8 7.85714C7.12 7.85714 6.4 6.83571 6.4 5.5C6.4 4.16429 7.12 3.14286 8 3.14286Z" fill="black"/>
</svg>
