<svg width="25" height="24" viewBox="0 0 25 24" fill="none" xmlns="http://www.w3.org/2000/svg">
<path d="M13.5 5V7M13.5 17V19M13.5 11V13M2.5 9C3.29565 9 4.05871 9.31607 4.62132 9.87868C5.18393 10.4413 5.5 11.2044 5.5 12C5.5 12.7956 5.18393 13.5587 4.62132 14.1213C4.05871 14.6839 3.29565 15 2.5 15V17C2.5 17.5304 2.71071 18.0391 3.08579 18.4142C3.46086 18.7893 3.96957 19 4.5 19H20.5C21.0304 19 21.5391 18.7893 21.9142 18.4142C22.2893 18.0391 22.5 17.5304 22.5 17V15C21.7044 15 20.9413 14.6839 20.3787 14.1213C19.8161 13.5587 19.5 12.7956 19.5 12C19.5 11.2044 19.8161 10.4413 20.3787 9.87868C20.9413 9.31607 21.7044 9 22.5 9V7C22.5 6.46957 22.2893 5.96086 21.9142 5.58579C21.5391 5.21071 21.0304 5 20.5 5H4.5C3.96957 5 3.46086 5.21071 3.08579 5.58579C2.71071 5.96086 2.5 6.46957 2.5 7V9Z" stroke="black" stroke-width="2" stroke-linecap="round" stroke-linejoin="round"/>
</svg>
