<svg width="25" height="25" viewBox="0 0 25 25" fill="none" xmlns="http://www.w3.org/2000/svg">
<path fill-rule="evenodd" clip-rule="evenodd" d="M5.5 4.5C4.70435 4.5 3.94129 4.81607 3.37868 5.37868C2.81607 5.94129 2.5 6.70435 2.5 7.5V10.5C2.5 10.7652 2.60536 11.0196 2.79289 11.2071C2.98043 11.3946 3.23478 11.5 3.5 11.5C3.76522 11.5 4.01957 11.6054 4.20711 11.7929C4.39464 11.9804 4.5 12.2348 4.5 12.5C4.5 12.7652 4.39464 13.0196 4.20711 13.2071C4.01957 13.3946 3.76522 13.5 3.5 13.5C3.23478 13.5 2.98043 13.6054 2.79289 13.7929C2.60536 13.9804 2.5 14.2348 2.5 14.5V17.5C2.5 18.2956 2.81607 19.0587 3.37868 19.6213C3.94129 20.1839 4.70435 20.5 5.5 20.5H19.5C20.2956 20.5 21.0587 20.1839 21.6213 19.6213C22.1839 19.0587 22.5 18.2956 22.5 17.5V14.5C22.5 14.2348 22.3946 13.9804 22.2071 13.7929C22.0196 13.6054 21.7652 13.5 21.5 13.5C21.2348 13.5 20.9804 13.3946 20.7929 13.2071C20.6054 13.0196 20.5 12.7652 20.5 12.5C20.5 12.2348 20.6054 11.9804 20.7929 11.7929C20.9804 11.6054 21.2348 11.5 21.5 11.5C21.7652 11.5 22.0196 11.3946 22.2071 11.2071C22.3946 11.0196 22.5 10.7652 22.5 10.5V7.5C22.5 6.70435 22.1839 5.94129 21.6213 5.37868C21.0587 4.81607 20.2956 4.5 19.5 4.5H5.5ZM4.5 7.5C4.5 7.23478 4.60536 6.98043 4.79289 6.79289C4.98043 6.60536 5.23478 6.5 5.5 6.5H9.5V18.5H5.5C5.23478 18.5 4.98043 18.3946 4.79289 18.2071C4.60536 18.0196 4.5 17.7652 4.5 17.5V15.329C4.92179 15.1796 5.30481 14.9377 5.621 14.621C5.97941 14.2627 6.2412 13.8194 6.38195 13.3325C6.52269 12.8457 6.5378 12.3311 6.42586 11.8368C6.31392 11.3425 6.07858 10.8846 5.74181 10.5059C5.40504 10.1272 4.97782 9.83994 4.5 9.671V7.5Z" fill="black"/>
</svg>
