<svg width="21" height="17" viewBox="0 0 21 17" fill="none" xmlns="http://www.w3.org/2000/svg">
<path fill-rule="evenodd" clip-rule="evenodd" d="M3.5 0.5C2.70435 0.5 1.94129 0.816071 1.37868 1.37868C0.816071 1.94129 0.5 2.70435 0.5 3.5V6.5C0.5 6.76522 0.605357 7.01957 0.792893 7.20711C0.98043 7.39464 1.23478 7.5 1.5 7.5C1.76522 7.5 2.01957 7.60536 2.20711 7.79289C2.39464 7.98043 2.5 8.23478 2.5 8.5C2.5 8.76522 2.39464 9.01957 2.20711 9.20711C2.01957 9.39464 1.76522 9.5 1.5 9.5C1.23478 9.5 0.98043 9.60536 0.792893 9.79289C0.605357 9.98043 0.5 10.2348 0.5 10.5V13.5C0.5 14.2956 0.816071 15.0587 1.37868 15.6213C1.94129 16.1839 2.70435 16.5 3.5 16.5H17.5C18.2956 16.5 19.0587 16.1839 19.6213 15.6213C20.1839 15.0587 20.5 14.2956 20.5 13.5V10.5C20.5 10.2348 20.3946 9.98043 20.2071 9.79289C20.0196 9.60536 19.7652 9.5 19.5 9.5C19.2348 9.5 18.9804 9.39464 18.7929 9.20711C18.6054 9.01957 18.5 8.76522 18.5 8.5C18.5 8.23478 18.6054 7.98043 18.7929 7.79289C18.9804 7.60536 19.2348 7.5 19.5 7.5C19.7652 7.5 20.0196 7.39464 20.2071 7.20711C20.3946 7.01957 20.5 6.76522 20.5 6.5V3.5C20.5 2.70435 20.1839 1.94129 19.6213 1.37868C19.0587 0.816071 18.2956 0.5 17.5 0.5H3.5ZM2.5 3.5C2.5 3.23478 2.60536 2.98043 2.79289 2.79289C2.98043 2.60536 3.23478 2.5 3.5 2.5H7.5V14.5H3.5C3.23478 14.5 2.98043 14.3946 2.79289 14.2071C2.60536 14.0196 2.5 13.7652 2.5 13.5V11.329C2.92179 11.1796 3.30481 10.9377 3.621 10.621C3.97941 10.2627 4.2412 9.81941 4.38195 9.33254C4.52269 8.84567 4.5378 8.33108 4.42586 7.83679C4.31392 7.34251 4.07858 6.88464 3.74181 6.50591C3.40504 6.12718 2.97782 5.83994 2.5 5.671V3.5Z" fill="#808080"/>
</svg>
