<svg width="100" height="100" viewBox="0 0 100 100" fill="none" xmlns="http://www.w3.org/2000/svg">
<path fill-rule="evenodd" clip-rule="evenodd" d="M58.002 0.5C58.002 5.19442 54.1964 9 49.502 9C44.8075 9 41.002 5.19442 41.002 0.5C41.002 0.228519 40.7876 0 40.5161 0H4C1.79086 0 0 1.79086 0 4V40.516C0 40.7865 0.227607 41 0.498047 41C5.19247 41 8.99805 44.8056 8.99805 49.5C8.99805 54.1944 5.19247 58 0.498047 58C0.227607 58 0 58.2135 0 58.484V96C0 98.2091 1.79086 100 4 100H40.5142C40.7857 100 41 99.7715 41 99.5C41 94.8056 44.8056 91 49.5 91C54.1944 91 58 94.8056 58 99.5C58 99.7715 58.2143 100 58.4858 100H96C98.2091 100 100 98.2091 100 96V59.4858C100 59.2143 99.7715 59 99.5 59C94.8056 59 91 55.1944 91 50.5C91 45.8056 94.8056 42 99.5 42C99.7715 42 100 41.7857 100 41.5142V4C100 1.79086 98.2091 0 96 0H58.4878C58.2163 0 58.002 0.228519 58.002 0.5Z" fill="url(#paint0_linear_834_18560)"/>
<path fill-rule="evenodd" clip-rule="evenodd" d="M37.0843 62.958C35.7324 63.8313 33.9552 62.8314 33.9998 61.2225L34.6316 38.4694C34.6492 37.8349 34.967 37.2464 35.4879 36.8836L49.1655 27.3588C49.8058 26.9129 50.6469 26.88 51.32 27.2747L70.0117 38.2334C71.2968 38.9868 71.3367 40.8303 70.0854 41.6387L37.0843 62.958ZM50.1504 56.955C51.5174 56.1055 53.2768 57.1365 53.2039 58.7444L52.8434 66.6943C52.8147 67.3284 52.4866 67.9112 51.9594 68.2647L46.5709 71.8784C45.9229 72.313 45.0813 72.3311 44.4152 71.9247L37.9265 67.9657C36.6549 67.1899 36.6473 65.3459 37.9126 64.5597L50.1504 56.955Z" fill="white"/>
<defs>
<linearGradient id="paint0_linear_834_18560" x1="50" y1="-99.5" x2="50.6173" y2="123.457" gradientUnits="userSpaceOnUse">
<stop stop-color="#1E1E1E"/>
<stop offset="1" stop-color="#FF6D4D"/>
</linearGradient>
</defs>
</svg>
